<svg width="40" height="40" viewBox="0 0 40 40" fill="none" xmlns="http://www.w3.org/2000/svg">
<path d="M40 20C40 8.95431 31.0457 0 20 0V0C8.95431 0 0 8.95431 0 20V20C0 31.0457 8.95431 40 20 40V40C31.0457 40 40 31.0457 40 20V20Z" fill="#231E1B"/>
<path fill-rule="evenodd" clip-rule="evenodd" d="M19.9602 7C12.8043 7 7 12.7673 7 19.8776C7 25.5658 10.737 30.385 15.8257 32.1231C16.4618 32.2021 16.7003 31.8071 16.7003 31.4911C16.7003 31.1751 16.7003 30.385 16.7003 29.279C13.1223 30.069 12.3272 27.5409 12.3272 27.5409C11.7706 26.0398 10.896 25.6448 10.896 25.6448C9.70336 24.8548 10.9755 24.8548 10.9755 24.8548C12.2477 24.9338 12.9633 26.1979 12.9633 26.1979C14.156 28.1729 15.9847 27.6199 16.7003 27.3039C16.7798 26.4349 17.1774 25.8818 17.4954 25.5658C14.633 25.2498 11.6116 24.1438 11.6116 19.1665C11.6116 17.7445 12.0887 16.6384 12.9633 15.6904C12.8838 15.4534 12.4067 14.1103 13.1223 12.3722C13.1223 12.3722 14.2355 12.0562 16.7003 13.7153C17.7339 13.3993 18.8471 13.3203 19.9602 13.3203C21.0734 13.3203 22.1865 13.4783 23.2202 13.7153C25.685 12.0562 26.7982 12.3722 26.7982 12.3722C27.5138 14.1103 27.0367 15.4534 26.9572 15.7694C27.7523 16.6384 28.3089 17.8235 28.3089 19.2455C28.3089 24.2228 25.2875 25.2498 22.4251 25.5658C22.9021 25.9608 23.2997 26.7509 23.2997 27.9359C23.2997 29.674 23.2997 31.0171 23.2997 31.4911C23.2997 31.8071 23.5382 32.2021 24.1743 32.1231C29.3425 30.385 33 25.5658 33 19.8776C32.9205 12.7673 27.1162 7 19.9602 7Z" fill="white"/>
</svg>
