<svg width="18" height="18" viewBox="0 0 18 18" fill="none" xmlns="http://www.w3.org/2000/svg">
<path d="M9 0.25C4.16797 0.25 0.25 4.16797 0.25 9C0.25 13.832 4.16797 17.75 9 17.75C13.832 17.75 17.75 13.832 17.75 9C17.75 4.16797 13.832 0.25 9 0.25ZM9 16.2656C4.98828 16.2656 1.73438 13.0117 1.73438 9C1.73438 4.98828 4.98828 1.73438 9 1.73438C13.0117 1.73438 16.2656 4.98828 16.2656 9C16.2656 13.0117 13.0117 16.2656 9 16.2656Z" fill="black" fill-opacity="0.8"/>
<path d="M9 1.73438C4.98828 1.73438 1.73438 4.98828 1.73438 9C1.73438 13.0117 4.98828 16.2656 9 16.2656C13.0117 16.2656 16.2656 13.0117 16.2656 9C16.2656 4.98828 13.0117 1.73438 9 1.73438ZM9.625 13.2188C9.625 13.3047 9.55469 13.375 9.46875 13.375H8.53125C8.44531 13.375 8.375 13.3047 8.375 13.2188V7.90625C8.375 7.82031 8.44531 7.75 8.53125 7.75H9.46875C9.55469 7.75 9.625 7.82031 9.625 7.90625V13.2188ZM9 6.5C8.75467 6.49499 8.52108 6.39402 8.34935 6.21875C8.17763 6.04348 8.08144 5.80788 8.08144 5.5625C8.08144 5.31712 8.17763 5.08152 8.34935 4.90625C8.52108 4.73098 8.75467 4.63001 9 4.625C9.24533 4.63001 9.47892 4.73098 9.65065 4.90625C9.82237 5.08152 9.91856 5.31712 9.91856 5.5625C9.91856 5.80788 9.82237 6.04348 9.65065 6.21875C9.47892 6.39402 9.24533 6.49499 9 6.5Z" fill="black" fill-opacity="0.1"/>
<path d="M8.0625 5.5625C8.0625 5.81114 8.16127 6.0496 8.33709 6.22541C8.5129 6.40123 8.75136 6.5 9 6.5C9.24864 6.5 9.4871 6.40123 9.66291 6.22541C9.83873 6.0496 9.9375 5.81114 9.9375 5.5625C9.9375 5.31386 9.83873 5.0754 9.66291 4.89959C9.4871 4.72377 9.24864 4.625 9 4.625C8.75136 4.625 8.5129 4.72377 8.33709 4.89959C8.16127 5.0754 8.0625 5.31386 8.0625 5.5625ZM9.46875 7.75H8.53125C8.44531 7.75 8.375 7.82031 8.375 7.90625V13.2188C8.375 13.3047 8.44531 13.375 8.53125 13.375H9.46875C9.55469 13.375 9.625 13.3047 9.625 13.2188V7.90625C9.625 7.82031 9.55469 7.75 9.46875 7.75Z" fill="black" fill-opacity="0.8"/>
</svg>
