<svg width="20" height="20" viewBox="0 0 20 20" fill="none" xmlns="http://www.w3.org/2000/svg">
<g opacity="0.4">
<path d="M10 1.25C5.16797 1.25 1.25 5.16797 1.25 10C1.25 14.832 5.16797 18.75 10 18.75C14.832 18.75 18.75 14.832 18.75 10C18.75 5.16797 14.832 1.25 10 1.25ZM10 17.2656C5.98828 17.2656 2.73438 14.0117 2.73438 10C2.73438 5.98828 5.98828 2.73438 10 2.73438C14.0117 2.73438 17.2656 5.98828 17.2656 10C17.2656 14.0117 14.0117 17.2656 10 17.2656Z" fill="black" fill-opacity="0.8"/>
<path d="M10 2.73438C5.98828 2.73438 2.73438 5.98828 2.73438 10C2.73438 14.0117 5.98828 17.2656 10 17.2656C14.0117 17.2656 17.2656 14.0117 17.2656 10C17.2656 5.98828 14.0117 2.73438 10 2.73438ZM10.625 14.2188C10.625 14.3047 10.5547 14.375 10.4688 14.375H9.53125C9.44531 14.375 9.375 14.3047 9.375 14.2188V8.90625C9.375 8.82031 9.44531 8.75 9.53125 8.75H10.4688C10.5547 8.75 10.625 8.82031 10.625 8.90625V14.2188ZM10 7.5C9.75467 7.49499 9.52108 7.39402 9.34936 7.21875C9.17763 7.04348 9.08144 6.80788 9.08144 6.5625C9.08144 6.31712 9.17763 6.08152 9.34936 5.90625C9.52108 5.73098 9.75467 5.63001 10 5.625C10.2453 5.63001 10.4789 5.73098 10.6506 5.90625C10.8224 6.08152 10.9186 6.31712 10.9186 6.5625C10.9186 6.80788 10.8224 7.04348 10.6506 7.21875C10.4789 7.39402 10.2453 7.49499 10 7.5Z" fill="black" fill-opacity="0.1"/>
<path d="M9.0625 6.5625C9.0625 6.81114 9.16127 7.0496 9.33709 7.22541C9.5129 7.40123 9.75136 7.5 10 7.5C10.2486 7.5 10.4871 7.40123 10.6629 7.22541C10.8387 7.0496 10.9375 6.81114 10.9375 6.5625C10.9375 6.31386 10.8387 6.0754 10.6629 5.89959C10.4871 5.72377 10.2486 5.625 10 5.625C9.75136 5.625 9.5129 5.72377 9.33709 5.89959C9.16127 6.0754 9.0625 6.31386 9.0625 6.5625V6.5625ZM10.4688 8.75H9.53125C9.44531 8.75 9.375 8.82031 9.375 8.90625V14.2188C9.375 14.3047 9.44531 14.375 9.53125 14.375H10.4688C10.5547 14.375 10.625 14.3047 10.625 14.2188V8.90625C10.625 8.82031 10.5547 8.75 10.4688 8.75Z" fill="black" fill-opacity="0.8"/>
</g>
</svg>
