<svg width="144" height="144" viewBox="0 0 144 144" fill="none" xmlns="http://www.w3.org/2000/svg">
<rect width="144" height="144" rx="72" fill="#002868"/>
<path d="M69.359 95.103V101.712H36.9046V95.103H69.359ZM38.5462 40.423V101.712H30.4221V40.423H38.5462ZM65.0654 66.7738V73.3825H36.9046V66.7738H65.0654ZM68.9381 40.423V47.0738H36.9046V40.423H68.9381ZM86.0282 65.8898V101.712H78.2408V56.1661H85.6073L86.0282 65.8898ZM84.1761 77.2131L80.9349 77.0868C80.9629 73.9718 81.4259 71.0954 82.324 68.4575C83.222 65.7916 84.4848 63.4764 86.1124 61.512C87.74 59.5476 89.6764 58.0323 91.9214 56.9659C94.1944 55.8714 96.7061 55.3242 99.4562 55.3242C101.701 55.3242 103.722 55.6329 105.518 56.2503C107.314 56.8396 108.843 57.7937 110.106 59.1127C111.397 60.4316 112.379 62.1434 113.053 64.2481C113.726 66.3248 114.063 68.8644 114.063 71.8671V101.712H106.233V71.783C106.233 69.3976 105.883 67.4894 105.181 66.0582C104.479 64.5989 103.455 63.5466 102.108 62.9011C100.761 62.2276 99.1054 61.8909 97.141 61.8909C95.2047 61.8909 93.4368 62.2978 91.8372 63.1116C90.2657 63.9254 88.9046 65.0479 87.7541 66.4791C86.6316 67.9103 85.7476 69.552 85.1022 71.4041C84.4848 73.2282 84.1761 75.1645 84.1761 77.2131Z" fill="white"/>
</svg>
