<svg width="20" height="20" viewBox="0 0 20 20" fill="none" xmlns="http://www.w3.org/2000/svg">
<g opacity="0.5">
<path d="M14.3822 14.4855L12.1062 6.11322C12.0045 5.73765 11.7688 5.40425 11.4368 5.16622C11.1049 4.92819 10.6957 4.79925 10.2747 4.8H9.72334C9.30266 4.79964 8.89395 4.92875 8.56237 5.16675C8.23078 5.40475 7.9954 5.73794 7.89374 6.11322L5.61775 14.4855C5.57857 14.6338 5.60475 14.7903 5.69058 14.9209C5.77641 15.0515 5.91492 15.1456 6.07592 15.1827C6.23692 15.2197 6.40733 15.1968 6.54999 15.1188C6.69266 15.0409 6.796 14.9142 6.83748 14.7665L7.66111 11.736H12.3388L13.1625 14.7665C13.204 14.9142 13.3073 15.0409 13.45 15.1188C13.5926 15.1968 13.763 15.2197 13.924 15.1827C14.085 15.1456 14.2235 15.0515 14.3094 14.9209C14.3952 14.7903 14.4214 14.6338 14.3822 14.4855V14.4855ZM7.97547 10.58L9.1141 6.39413C9.14784 6.26893 9.22625 6.15774 9.3368 6.07832C9.44735 5.9989 9.58366 5.95584 9.72397 5.956H10.276C10.4163 5.95584 10.5526 5.9989 10.6632 6.07832C10.7737 6.15774 10.8521 6.26893 10.8859 6.39413L12.0238 10.58H7.97547Z" fill="#333333"/>
<path d="M20 10C20 15.5228 15.5228 20 10 20C4.47715 20 0 15.5228 0 10C0 4.47715 4.47715 0 10 0C15.5228 0 20 4.47715 20 10ZM2 10C2 14.4183 5.58172 18 10 18C14.4183 18 18 14.4183 18 10C18 5.58172 14.4183 2 10 2C5.58172 2 2 5.58172 2 10Z" fill="#5B5B5B"/>
</g>
</svg>
