<svg width="366" height="124" viewBox="0 0 366 124" fill="none" xmlns="http://www.w3.org/2000/svg">
<path d="M31.4253 28.5915C30.803 37.1378 24.8913 45.6842 13.0679 45.6842H0L2.95585 12.1203H16.1794C27.6916 12.1203 32.0476 20.2005 31.4253 28.5915ZM6.84512 39.4687H13.6902C21.3132 39.4687 24.8913 33.8747 25.2025 28.4361C25.5136 23.3083 22.8689 18.0251 15.5571 18.0251H8.71196L6.84512 39.4687Z" fill="#F57D07"/>
<path d="M69.0734 29.0576C68.2956 37.7594 62.2283 46.4612 50.2494 46.4612C38.2704 46.4612 33.7589 37.9148 34.5367 29.213C35.3146 20.5113 41.8485 11.3434 53.3608 11.3434C64.873 11.3434 70.0069 20.2005 69.0734 29.0576ZM40.9151 29.213C40.604 34.807 43.0931 40.5564 50.8717 40.5564C58.6502 40.5564 62.2283 34.6516 62.8506 29.0576C63.4729 23.619 60.8282 17.0927 52.8941 17.0927C44.96 17.0927 41.2263 23.4637 40.9151 29.213Z" fill="#F57D07"/>
<path d="M97.3873 11.9649H103.766L100.81 45.6842H96.765L81.208 22.9975L79.1855 45.6842H72.8071L75.763 12.1203H80.8968L95.5205 32.9424L97.3873 11.9649Z" fill="#F57D07"/>
<path d="M130.991 39.3133H113.411L109.989 45.6842H103.143L121.034 12.1203H128.035L140.169 45.6842H133.324L130.991 39.3133ZM123.99 19.1128L116.523 33.4085H128.968L123.99 19.1128Z" fill="#F57D07"/>
<path d="M148.726 17.8697H137.991L138.458 12.1203H166.15L165.683 17.8697H154.949L152.615 45.6842H146.237L148.726 17.8697Z" fill="#F57D07"/>
<path d="M167.083 45.6842L170.039 12.1203H176.262L173.306 45.6842H167.083Z" fill="#F57D07"/>
<path d="M214.843 29.0576C213.91 37.7594 207.843 46.4612 196.019 46.4612C184.196 46.4612 179.529 37.9148 180.307 29.213C181.084 20.5113 187.463 11.3434 199.131 11.3434C210.798 11.3434 215.621 20.2005 214.843 29.0576ZM186.529 29.213C186.218 34.807 188.707 40.5564 196.641 40.5564C204.576 40.5564 207.998 34.6516 208.62 29.0576C209.243 23.4637 206.598 16.9373 198.664 16.9373C190.73 16.9373 186.841 23.4637 186.529 29.213Z" fill="#F57D07"/>
<path d="M243.002 11.9649H249.38L246.424 45.6842H242.535L226.822 22.9975L224.8 45.6842H218.577L221.377 12.1203H226.511L241.29 32.9424L243.002 11.9649Z" fill="#F57D07"/>
<path d="M83.3859 86.8622H65.8064L62.3839 93.2331H55.5388L73.585 59.5138H80.4301L92.5646 93.2331H85.5639L83.3859 86.8622ZM76.2297 66.6617L68.7623 80.9574H81.208L76.2297 66.6617Z" fill="#F57D07"/>
<path d="M105.166 59.5138L102.677 87.3283H119.945L119.478 93.2331H95.8316L98.7875 59.5138H105.166Z" fill="#F57D07"/>
<path d="M149.037 93.2331H123.834C124.768 82.0451 125.857 70.7017 126.79 59.5138H151.993L151.526 65.7293H132.546L131.924 73.4987H150.126L149.659 79.4035H131.302L130.679 87.0175H149.504L149.037 93.2331Z" fill="#F57D07"/>
<path d="M183.729 93.2331H176.262L167.394 82.0451H161.327L160.238 93.2331H154.015L156.971 59.5138C162.26 59.5138 167.55 59.5138 172.995 59.5138C180.929 59.5138 184.663 64.797 184.196 70.7018C184.04 75.985 179.995 80.4912 174.706 81.2682L183.885 92.7669L183.729 93.2331ZM162.727 65.4185L161.794 76.1403H171.439C172.995 76.2957 174.55 75.6742 175.639 74.7418C176.884 73.6541 177.506 72.2556 177.662 70.7018C177.817 69.3033 177.351 67.7494 176.417 66.6617C175.328 65.5739 173.928 65.1078 172.372 65.2632H162.727V65.4185Z" fill="#F57D07"/>
<path d="M198.975 65.2632H188.241L188.707 59.5138H216.399L215.932 65.2632H205.198L202.864 93.2331H196.486L198.975 65.2632Z" fill="#F57D07"/>
<path d="M240.357 67.594C239.423 65.7293 236.312 63.8647 232.734 63.8647C228.067 63.8647 225.578 65.8847 225.422 68.3709C225.111 71.3233 228.534 72.1002 232.578 72.5664C239.579 73.4987 245.957 75.208 245.18 83.2882C244.557 90.7469 237.557 94.01 230.089 94.01C223.244 94.01 218.11 91.8346 216.088 85.7744L221.688 82.9774C222.933 86.7068 226.667 88.2606 230.712 88.2606C234.756 88.2606 238.646 86.8621 238.801 83.2882C239.112 80.1804 235.845 78.782 231.489 78.3158C224.644 77.5388 218.577 75.6742 219.199 68.0601C219.822 61.0677 226.822 58.2707 233.045 58.2707C238.334 58.2707 243.624 59.8246 245.646 64.9524L240.357 67.594Z" fill="#F57D07"/>
<path d="M364.969 27.5038L342.878 1.86466C341.789 0.621554 340.389 0 338.833 0H272.871C270.071 0 267.893 2.02005 267.582 4.66165L259.648 94.787C259.492 96.1855 259.959 97.7393 261.048 98.8271C262.137 99.9148 263.381 100.536 264.937 100.536H277.849L275.827 124L301.341 100.536H330.277C331.677 100.536 332.922 100.07 333.855 98.9825L361.08 72.5664C362.013 71.6341 362.48 70.5464 362.636 69.3033L365.903 31.2331C366.214 29.99 365.747 28.5915 364.969 27.5038ZM344.745 62.1554C344.589 63.3985 344.123 64.6416 343.189 65.4185L327.477 80.4912C326.543 81.4236 325.143 81.8897 323.898 81.8897H285.317C282.983 81.8897 280.961 80.3358 280.339 78.1604C280.027 77.5388 280.027 76.9173 280.027 76.2957L284.695 23.4637C284.85 20.8221 287.184 18.6466 289.828 18.6466H329.032C330.588 18.6466 331.988 19.2682 332.922 20.3559L345.367 34.6516C346.301 35.7393 346.767 37.1378 346.612 38.5363L344.745 62.1554ZM313.942 72.2556H306.319C305.852 72.2556 305.386 72.1002 305.23 71.7895C305.074 71.4787 304.763 71.0125 304.763 70.5464L305.385 62.9323C305.385 62.1554 306.163 61.5338 306.941 61.5338H314.564C315.031 61.5338 315.498 61.6892 315.653 62C315.809 62.3108 316.12 62.7769 316.12 63.2431L315.498 70.8571C315.498 71.6341 314.72 72.2556 313.942 72.2556ZM315.342 57.8045H307.564C306.63 57.8045 306.008 57.183 306.008 56.2506L308.03 32.1654C308.186 31.3885 308.808 30.7669 309.586 30.7669H317.364C318.298 30.7669 318.92 31.3885 318.92 32.3208L316.742 56.406C316.742 57.183 316.12 57.8045 315.342 57.8045Z" fill="url(#paint0_linear_181_1701)"/>
<defs>
<linearGradient id="paint0_linear_181_1701" x1="287.695" y1="-7.51791" x2="242.954" y2="172.289" gradientUnits="userSpaceOnUse">
<stop stop-color="#F59C07"/>
<stop offset="1" stop-color="#F57507"/>
</linearGradient>
</defs>
</svg>
