<svg width="20" height="20" viewBox="0 0 20 20" fill="none" xmlns="http://www.w3.org/2000/svg">
<g opacity="0.5" clip-path="url(#clip0_60_111)">
<path d="M7.5 0.347492C7.62202 0.495757 7.69677 0.677207 7.71459 0.868395C7.73242 1.05958 7.6925 1.25172 7.6 1.41999C6.87732 2.74683 6.49992 4.23411 6.5025 5.74499C6.5025 10.7712 10.6 14.8412 15.65 14.8412C16.3088 14.8412 16.95 14.7725 17.5663 14.6412C17.7552 14.6003 17.9519 14.616 18.132 14.6862C18.3121 14.7565 18.4675 14.8782 18.5787 15.0362C18.6962 15.2006 18.7561 15.3991 18.7491 15.601C18.7421 15.8028 18.6686 15.9967 18.54 16.1525C17.5596 17.3568 16.3228 18.3271 14.9198 18.9927C13.5168 19.6583 11.9829 20.0025 10.43 20C4.6675 20 0 15.3575 0 9.63749C0 5.33249 2.6425 1.63999 6.405 0.0749917C6.59242 -0.00421853 6.80049 -0.0204761 6.99794 0.0286612C7.19539 0.0777985 7.37156 0.189677 7.5 0.347492V0.347492Z" fill="#424154"/>
</g>
<defs>
<clipPath id="clip0_60_111">
<rect width="20" height="20" fill="white"/>
</clipPath>
</defs>
</svg>
