<svg width="20" height="20" viewBox="0 0 20 20" fill="none" xmlns="http://www.w3.org/2000/svg">
<path opacity="0.5" d="M10.0005 6.25C7.93398 6.25 6.2503 7.93359 6.2503 10C6.2503 12.0664 7.93398 13.75 10.0005 13.75C12.067 13.75 13.7507 12.0664 13.7507 10C13.7507 7.93359 12.067 6.25 10.0005 6.25ZM19.626 9.39453L15.9266 7.54687L17.2352 3.625C17.411 3.09375 16.9071 2.58984 16.3797 2.76953L12.4576 4.07813L10.606 0.375C10.356 -0.125 9.645 -0.125 9.39499 0.375L7.54724 4.07422L3.62127 2.76563C3.08999 2.58984 2.58606 3.09375 2.76576 3.62109L4.07442 7.54297L0.375018 9.39453C-0.125006 9.64453 -0.125006 10.3555 0.375018 10.6055L4.07442 12.4531L2.76576 16.3789C2.58997 16.9102 3.0939 17.4141 3.62127 17.2344L7.54334 15.9258L9.39108 19.625C9.64109 20.125 10.3521 20.125 10.6021 19.625L12.4498 15.9258L16.3719 17.2344C16.9032 17.4102 17.4071 16.9062 17.2274 16.3789L15.9187 12.457L19.6181 10.6094C20.126 10.3555 20.126 9.64453 19.626 9.39453V9.39453ZM13.5358 13.5352C11.5865 15.4844 8.41447 15.4844 6.46516 13.5352C4.51584 11.5859 4.51584 8.41406 6.46516 6.46484C8.41447 4.51562 11.5865 4.51562 13.5358 6.46484C15.4851 8.41406 15.4851 11.5859 13.5358 13.5352Z" fill="#272727"/>
</svg>
